<?xml version="1.0" encoding="UTF-8"?>
<svg id="Layer_1" xmlns="http://www.w3.org/2000/svg" version="1.1" xmlns:xlink="http://www.w3.org/1999/xlink" viewBox="0 0 950.06 493.62">
  <!-- Generator: Adobe Illustrator 29.8.1, SVG Export Plug-In . SVG Version: 2.1.1 Build 2)  -->
  <defs>
    <style>
      .st0, .st1 {
        fill: #063449;
      }

      .st1 {
        fill-rule: evenodd;
      }

      .st2 {
        fill: url(#linear-gradient);
      }
    </style>
    <linearGradient id="linear-gradient" x1="580.97" y1="223.93" x2="876.47" y2="92.56" gradientUnits="userSpaceOnUse">
      <stop offset="0" stop-color="#ecd5b0"/>
      <stop offset=".08" stop-color="#e4cda8"/>
      <stop offset=".19" stop-color="#d0b994"/>
      <stop offset=".33" stop-color="#af9873"/>
      <stop offset=".48" stop-color="#816b46"/>
      <stop offset=".52" stop-color="#755f3a"/>
    </linearGradient>
  </defs>
  <path class="st0" d="M147.25,84.87v23.09h-59.27v194.36h-28.39V107.96H0v-23.09h147.25Z"/>
  <path class="st0" d="M301.98,136.5c10.4,5.51,18.56,13.78,24.49,24.8,5.93,11.03,8.89,24.44,8.89,40.25v100.77h-28.08v-96.71c0-17.05-4.27-30.11-12.79-39.15-8.53-9.05-20.18-13.57-34.94-13.57s-26.88,4.68-35.72,14.04c-8.84,9.36-13.26,22.98-13.26,40.87v94.53h-28.39V71.46h28.39v84.23c5.62-8.73,13.36-15.49,23.24-20.28,9.88-4.78,20.95-7.17,33.23-7.17,12.89,0,24.54,2.76,34.94,8.27Z"/>
  <path class="st0" d="M431.61,136.35c9.25-5.4,20.53-8.11,33.85-8.11v29.32h-7.49c-31.82,0-47.73,17.27-47.73,51.79v92.97h-28.39v-170.96h28.39v27.76c4.99-9.77,12.11-17.36,21.37-22.77Z"/>
  <path class="st0" d="M499.14,97.97c-3.75-3.74-5.62-8.32-5.62-13.73s1.87-9.98,5.62-13.72c3.74-3.74,8.31-5.61,13.72-5.61s9.62,1.87,13.26,5.61c3.63,3.74,5.46,8.32,5.46,13.72s-1.82,9.98-5.46,13.73c-3.64,3.74-8.06,5.61-13.26,5.61s-9.98-1.87-13.72-5.61ZM526.59,131.36v170.96h-28.39v-170.96h28.39Z"/>
  <path class="st0" d="M949.13,227.44h-136.64c1.04,16.85,6.81,30,17.32,39.47,10.5,9.47,23.24,14.19,38.22,14.19,12.27,0,22.51-2.86,30.73-8.58,8.21-5.72,13.98-13.36,17.31-22.93h30.57c-4.58,16.43-13.72,29.8-27.45,40.09-13.72,10.29-30.78,15.44-51.16,15.44-16.22,0-30.73-3.64-43.52-10.92-12.79-7.28-22.83-17.63-30.11-31.04-7.28-13.41-10.92-28.96-10.92-46.64s3.53-33.17,10.61-46.48c7.07-13.31,17-23.55,29.79-30.73,12.79-7.17,27.5-10.76,44.14-10.76s30.57,3.54,43.05,10.61c12.48,7.07,22.1,16.8,28.86,29.17,6.75,12.38,10.14,26.36,10.14,41.96,0,5.41-.31,11.13-.94,17.16ZM913.56,176.44c-4.79-7.8-11.28-13.73-19.5-17.78-8.22-4.05-17.31-6.08-27.3-6.08-14.35,0-26.57,4.58-36.66,13.73-10.09,9.15-15.86,21.84-17.31,38.06h107.94c0-10.81-2.39-20.12-7.17-27.92Z"/>
  <path class="st0" d="M1.46,474.48v-1.8c3.03-.16,5.47-.59,7.32-1.29,1.85-.71,3.49-1.79,4.89-3.25,1.67-1.67,2.79-3.78,3.37-6.34.58-2.56.86-6.53.86-11.9v-57.7c0-5.38-.29-9.34-.86-11.9-.58-2.56-1.7-4.67-3.37-6.34-1.41-1.51-3.05-2.61-4.93-3.29-1.88-.68-4.3-1.1-7.28-1.25v-1.8h51.44c5.22,0,8.64.05,10.25.16,5.95.47,10.88,1.88,14.8,4.23,3.39,2.09,6.01,4.83,7.87,8.22,1.85,3.39,2.78,7.2,2.78,11.43,0,6.84-2.12,12.45-6.34,16.84-1.52,1.62-3.24,2.96-5.17,4.03-1.93,1.07-4.72,2.26-8.38,3.56,5.01.84,8.9,1.75,11.67,2.74,2.76.99,5.27,2.37,7.52,4.15,3.34,2.72,5.94,6.09,7.79,10.14,1.85,4.05,2.78,8.42,2.78,13.12s-.95,9.09-2.86,13.04c-1.91,3.94-4.56,7.11-7.95,9.51-3.08,2.14-6.75,3.63-11,4.46-4.26.84-10.25,1.25-17.97,1.25H1.46ZM35.05,370.03v46.51h6.34c2.98,0,6.05-.21,9.24-.63,2.76-.42,5-.91,6.69-1.49,1.7-.57,3.25-1.36,4.66-2.35,2.66-1.98,4.71-4.53,6.15-7.63,1.43-3.1,2.15-6.54,2.15-10.29,0-3.97-.74-7.74-2.23-11.31-1.49-3.58-3.46-6.36-5.91-8.34-2.14-1.72-4.58-2.9-7.32-3.52-2.74-.62-6.9-.94-12.49-.94h-7.28ZM35.05,418.96v32.26c0,3.91.27,7.07.82,9.48.55,2.4,1.45,4.43,2.7,6.11,2.66,3.5,7.23,5.25,13.7,5.25,8.4,0,15.05-2.3,19.92-6.89,4.88-4.59,7.32-10.86,7.32-18.79,0-4.54-.76-8.75-2.27-12.64-1.52-3.89-3.55-6.88-6.11-8.96-4.7-3.86-12.06-5.8-22.08-5.8h-14.01Z"/>
  <path class="st0" d="M197.44,422.46v27.86c0,5.35.3,9.33.91,11.92s1.72,4.74,3.34,6.41c1.42,1.47,3.06,2.56,4.92,3.27,1.86.71,4.31,1.14,7.36,1.3v1.81h-50.29v-1.81c3.04-.16,5.49-.59,7.36-1.3,1.86-.71,3.5-1.8,4.92-3.27,1.68-1.68,2.81-3.8,3.38-6.37.58-2.57.87-6.56.87-11.96v-58c0-5.41-.29-9.39-.87-11.96-.58-2.57-1.71-4.7-3.38-6.38-1.42-1.52-3.07-2.62-4.96-3.3-1.89-.68-4.33-1.1-7.32-1.26v-1.81h37.93c6.35,0,10.52.03,12.52.08,8.13.37,14.5,1.47,19.12,3.3,5.19,2.1,9.22,5.23,12.08,9.4,2.86,4.17,4.29,9.01,4.29,14.52,0,8.19-3.1,14.75-9.29,19.68-1.89,1.47-3.97,2.68-6.26,3.62-2.28.94-5.34,1.84-9.17,2.67,3.15,1.31,5.48,2.68,7,4.09,1.21,1.1,2.31,2.48,3.3,4.13,1,1.65,2.49,4.58,4.49,8.77,4.67,9.6,8.2,16.62,10.59,21.05,2.39,4.43,4.39,7.65,6.02,9.64,1.31,1.62,2.59,2.75,3.82,3.38s2.92,1.05,5.08,1.26v1.81h-26.13c-1.31-2.89-2.15-4.72-2.52-5.51l-5.51-12.51c-3.3-7.5-6.64-14.14-10-19.91-3.36-5.72-6.43-9.62-9.21-11.73-1.42-1.05-2.94-1.8-4.56-2.24-1.63-.44-3.62-.67-5.98-.67h-3.86ZM197.44,420.72h2.99c6.5,0,11.16-.37,13.97-1.1,2.81-.73,5.44-2.26,7.91-4.56,5.51-5.25,8.26-11.75,8.26-19.52,0-4.14-.8-8.04-2.4-11.69-1.6-3.64-3.82-6.65-6.65-9.01-2.21-1.78-4.83-3.03-7.87-3.74-3.04-.71-7.37-1.06-12.98-1.06h-3.23v50.68Z"/>
  <path class="st0" d="M506.27,381.8v68.28c0,5.39.3,9.37.9,11.93.6,2.56,1.71,4.68,3.33,6.35,1.46,1.52,3.13,2.62,4.99,3.3,1.85.68,4.28,1.1,7.26,1.25v1.81h-36.18v-1.81c2.98-.16,5.4-.57,7.26-1.25,1.85-.68,3.52-1.78,4.98-3.3,1.62-1.67,2.73-3.8,3.34-6.39.6-2.59.9-6.55.9-11.89v-57.92c0-5.28-.3-9.22-.9-11.81-.6-2.59-1.71-4.72-3.34-6.39-1.41-1.52-3.05-2.61-4.9-3.29-1.86-.68-4.3-1.1-7.34-1.26v-1.81h30.22l63.73,81.3v-56.66c0-5.39-.3-9.37-.9-11.93-.6-2.57-1.71-4.68-3.33-6.36-1.47-1.52-3.13-2.61-4.99-3.29-1.86-.68-4.28-1.1-7.26-1.26v-1.81h36.18v1.81c-5.23,0-9.31,1.52-12.24,4.55-1.62,1.67-2.73,3.81-3.33,6.39-.6,2.59-.9,6.53-.9,11.81v82.56h-3.53l-73.93-92.92Z"/>
  <path class="st0" d="M662.35,473.21c3.04-.16,5.48-.58,7.32-1.26,1.84-.68,3.49-1.78,4.96-3.31,1.63-1.68,2.74-3.82,3.35-6.41.6-2.6.9-6.57.9-11.92v-58c0-5.77-.35-10-1.06-12.67-.71-2.68-2.09-4.88-4.13-6.61-2.57-2.15-6.35-3.36-11.34-3.62v-1.81h43.28c9.6,0,15.71.11,18.34.32,11.07.84,20.46,3.99,28.17,9.44,7.35,5.19,13.06,12,17.16,20.42,4.09,8.42,6.14,17.59,6.14,27.51,0,7.24-1.17,14.07-3.5,20.5-2.34,6.43-5.58,11.76-9.72,16.01-5.83,5.98-13.09,9.79-21.8,11.41-6.5,1.21-13.14,1.81-19.91,1.81h-58.16v-1.81ZM696.11,370.04v78.23c0,5.14.29,9.05.87,11.73.58,2.67,1.65,4.96,3.22,6.85,3.36,4.09,8.82,6.14,16.37,6.14,6.45,0,11.97-1.06,16.57-3.19,4.59-2.12,8.69-5.57,12.32-10.35,3.57-4.62,6.28-9.9,8.14-15.86,1.86-5.95,2.79-12.29,2.79-19.01,0-7.45-1.13-14.53-3.38-21.25-2.26-6.72-5.48-12.59-9.68-17.63-5.83-6.98-12.78-11.6-20.86-13.85-4.41-1.21-10.02-1.81-16.84-1.81h-9.52Z"/>
  <path class="st0" d="M838.74,472.01l.23-31.68,1.77.08c2.15,8.06,4.7,14.41,7.67,19.06,5.57,8.57,12.58,12.86,21.02,12.86,5.88,0,10.74-1.97,14.58-5.91,3.84-3.94,5.75-8.92,5.75-14.96,0-2.61-.42-5.27-1.26-7.98-.84-2.71-1.98-5.04-3.41-6.98-1.49-2-3.57-3.91-6.25-5.75-2.68-1.84-6.79-4.17-12.31-6.98-4.86-2.45-8.58-4.53-11.16-6.22-2.58-1.69-4.67-3.4-6.25-5.14-4.4-4.81-6.6-10.66-6.6-17.57,0-4.24.86-8.34,2.57-12.28,1.71-3.94,4.1-7.31,7.17-10.13,5.42-5.01,11.84-7.52,19.26-7.52,2.4,0,4.63.24,6.67.73,2.05.49,4.78,1.45,8.21,2.88,2.56,1.02,4.3,1.68,5.22,1.96.92.28,1.74.42,2.46.42,1.79,0,2.99-1.3,3.61-3.91h1.76l.54,30.46h-1.76c-1.38-4.86-2.57-8.58-3.56-11.16-1-2.58-2.18-4.97-3.56-7.17-2.5-3.99-5.26-6.94-8.27-8.86-3.01-1.92-6.48-2.88-10.41-2.88-5.72,0-10.24,1.94-13.55,5.84-1.38,1.59-2.46,3.46-3.26,5.61-.79,2.15-1.18,4.3-1.18,6.45,0,8.55,5.49,15.44,16.47,20.66l10.8,5.22c8.32,3.94,14.33,8.29,18,13.06,4.19,5.32,6.28,11.52,6.28,18.58,0,4.69-.95,9.19-2.84,13.47-2.66,5.97-6.65,10.58-11.97,13.81-5.32,3.24-11.58,4.86-18.79,4.86-6.6,0-12.94-1.31-19.03-3.91-3.17-1.38-5.06-2.17-5.68-2.38-.61-.2-1.3-.31-2.07-.31-2.45,0-4.14,1.23-5.06,3.68h-1.77Z"/>
  <g>
    <path class="st1" d="M375.01,470.86h-9.44c-.6,6.31.23,10.91,2.5,13.81.2-2.26.91-4.18,2.11-5.77.11,5.5,1.72,10.42,4.83,14.73,3.11-4.31,4.72-9.22,4.83-14.73,1.2,1.59,1.91,3.51,2.11,5.77,2.27-2.89,3.1-7.5,2.5-13.81h-9.44Z"/>
    <path class="st1" d="M359.95,465.57c.15.39.3.77.46,1.14-.16-.38-.32-.76-.46-1.14"/>
    <path class="st1" d="M390.52,464.36l.42-1.18c-.14.39-.28.79-.42,1.18"/>
    <path class="st1" d="M354.89,474.46l-9.18-24.79,9.32-6.43c-.38-17.62,6.56-35.07,19.98-47.96,13.42,12.88,20.36,30.34,19.98,47.96l9.32,6.43-9.18,24.79h43.12l-31.62-53.43-31.62-53.43-31.62,53.43-31.62,53.43h43.12Z"/>
    <path class="st1" d="M375.01,417.12c5.11,0,9.26,4.14,9.26,9.25s-4.14,9.25-9.26,9.25-9.26-4.14-9.26-9.25,4.15-9.25,9.26-9.25"/>
  </g>
  <polygon class="st2" points="796.82 0 734.84 46.14 754.44 54.4 665.9 272.46 664.91 272.46 608.24 131.89 574.09 131.89 644.62 305.12 686.19 305.12 783.55 65.3 803.45 74.42 796.82 0"/>
</svg>