<?xml version="1.0" encoding="utf-8"?>
<!-- Generator: Adobe Illustrator 27.0.0, SVG Export Plug-In . SVG Version: 6.00 Build 0)  -->
<svg version="1.1" id="Layer_1" xmlns="http://www.w3.org/2000/svg" xmlns:xlink="http://www.w3.org/1999/xlink" x="0px" y="0px"
	 viewBox="0 0 845.86 174.82" style="enable-background:new 0 0 845.86 174.82;" xml:space="preserve">
<style type="text/css">
	.st0{fill:#036350;}
	.st1{fill:#00624E;}
</style>
<g>
	<g>
		<g>
			<path class="st0" d="M383.32,33.3c-8.69-0.05-16.94,1.9-24.8,5.66c-5.03,2.39-9.57,5.61-13.57,9.52c-2,2-3.9,4.1-5.56,6.39
				c-1.66,2.25-2.68,4.1-5.32,5.27c-4.1,1.81-8.15,3.76-12.3,5.42c-3.81,1.51-7.71,2.88-11.76,3.66c-2.59,0.54-5.13,0.88-7.76,0.78
				c-0.63-0.05-0.78-0.2-0.68-0.83c0.05-0.29,0.1-0.54,0.2-0.83c3.03-11.81,8.25-22.6,15.82-32.17c7.13-9.08,15.82-16.3,25.97-21.87
				c7.66-4.2,15.77-7.13,24.31-8.88c3.66-0.73,7.32-1.22,11.03-1.51c2.59-0.2,5.22-0.2,7.81-0.2c3.9,0,7.76,0.44,11.62,1.03
				c4.1,0.68,8.15,1.61,12.15,2.88c4.54,1.46,8.98,3.27,13.23,5.42c3.95,2.05,7.76,4.34,11.37,6.93c4.3,3.08,8.3,6.54,11.86,10.45
				c9.57,10.25,16.25,22.11,20.11,35.63c1.42,5.03,2.44,10.2,2.83,15.42c0.54,7.18-4.59,12.79-9.27,17.57
				c-4.1,4.25-8.49,8.2-12.98,11.96c-4.2,3.47-8.83,6.35-13.76,8.74c-5.91,2.88-12.11,4.93-18.55,6.39
				c-3.86,0.88-7.76,1.37-11.67,1.61c-1.95,0.1-3.9,0.15-5.81,0.2c-3.47,0.05-6.88-0.29-10.3-0.73c-4.54-0.59-8.98-1.51-13.37-2.78
				c-6.69-1.9-13.13-4.49-19.38-7.57c-8.83-4.39-17.04-9.76-24.85-15.77c-4.25-3.27-8.3-6.69-12.3-10.25
				c-2.59-2.29-5.13-4.59-7.32-7.27c-2.49-2.98-4.64-6.25-6.78-9.47c-0.34-0.49-0.2-0.73,0.34-0.73c5.66,0,10.93-1.61,16.21-3.47
				c4.88-1.76,9.57-3.9,14.2-6.1c5.61-2.64,11.23-5.37,16.84-8.01c4.93-2.29,10.01-4.25,15.33-5.56c5.08-1.27,10.25-1.85,15.52-1.71
				c2.78,0.1,5.52,0.34,8.25,1.03c6.69,1.66,11.47,5.66,14.4,11.86c1.9,4,2.59,8.25,2.05,12.64c-0.49,3.56-1.71,7.03-3.86,9.91
				c-2.54,3.32-6.98,6.39-10.98,7.66c-3.56,1.12-7.18,1.9-10.93,2.1c-1.27,0.05-2.54,0.2-3.81,0.2c-4.05-0.05-8.1-0.54-12.06-1.42
				c-7.86-1.81-15.03-5.08-21.57-9.71c-0.24-0.15-0.44-0.34-0.68-0.49c-0.88-0.49-1.76-0.24-2.34,0.54
				c-0.49,0.68-0.39,1.61,0.24,2.25c0.2,0.2,0.44,0.34,0.68,0.49c2.29,1.66,4.69,3.12,7.22,4.49c0.63,0.34,1.27,0.68,1.85,1.12
				c7.86,5.96,16.69,9.66,26.36,11.28c4.3,0.73,8.64,0.93,12.94,0.63c7.08-0.49,13.96-2.05,20.31-5.37
				c5.52-2.88,10.2-6.74,13.76-11.81c3.27-4.69,5.03-9.81,5.08-15.57c0.05-5.08-0.98-9.91-3.12-14.5c-1.51-3.22-3.61-6.1-6-8.74
				c-4.34-4.69-9.81-7.81-15.67-10.15c-4.78-1.9-9.71-3.12-14.84-3.66C387.22,33.25,385.27,33.4,383.32,33.3z"/>
			<path class="st0" d="M300,76.84c0.1-0.39,0.59-0.54,0.83-0.24c0.2,0.24,0.34,0.54,0.54,0.83c1.56,2.29,3.12,4.59,4.78,6.78
				c2.15,2.83,4.64,5.32,7.22,7.71c4.1,3.81,8.35,7.42,12.74,10.84c1.9,1.46,3.81,2.93,5.71,4.34c0.68,0.54,1.17,1.12,1.51,1.9
				c2.1,4.83,4.73,9.32,8.01,13.42c7.91,9.81,18.11,16.06,30.36,18.94c3.17,0.73,6.44,1.17,9.71,1.12c2.05,0,4.1,0.05,6.15-0.1
				c4.54-0.29,9.03-1.22,13.37-2.54c3.37-1.03,6.64-2.25,9.76-3.81c3.12-1.61,6-3.61,8.44-6.1c0.93-0.98,2-1.51,3.22-1.85
				c7.71-2.29,14.99-5.52,21.72-10.01c3.17-2.15,6.2-4.54,9.03-7.08c3.17-2.78,6.25-5.66,9.23-8.64c2.59-2.59,4.88-5.37,7.18-8.2
				l0.05-0.05c0.34-0.2,0.34,0.49,0.34,0.63c-0.1,1.56-0.15,3.12-0.39,4.64c-0.68,5.13-1.71,10.15-3.27,15.13
				c-1.66,5.27-3.76,10.3-6.35,15.18c-3.08,5.76-6.74,11.08-11.03,16.01c-3.47,4-7.32,7.61-11.47,10.89
				c-4.39,3.47-9.08,6.39-14.01,8.93c-5.56,2.83-11.37,4.98-17.43,6.59c-4.15,1.07-8.35,1.85-12.59,2.29
				c-3.27,0.34-6.54,0.44-9.81,0.39c-12.2-0.15-23.87-2.83-34.95-7.96c-7.76-3.56-14.84-8.25-21.23-13.91
				c-8.49-7.57-15.13-16.5-20.01-26.75c-3.56-7.47-5.96-15.28-7.32-23.43c-1.07-6.49-1.17-13.03-0.83-19.57
				c0.1-2,0.44-3.95,0.63-5.96C300,77.04,300,76.94,300,76.84z"/>
			<path class="st1" d="M274.32,83.58c-0.05,13.42-3.81,23.62-11.42,32.36c-6.88,7.96-15.52,13.03-25.87,15.08
				c-11.52,2.25-22.5,0.44-32.61-5.47c-11.96-6.98-19.43-17.33-22.55-30.8c-2.98-15.82,1.07-29.58,12.06-41.29
				c6.15-6.54,13.67-10.93,22.4-13.18c25.87-6.64,50.76,9.03,56.82,34.22C273.98,78.06,274.37,81.72,274.32,83.58z M227.61,50.24
				c-4.15-0.05-8.79,0.78-13.18,2.68c-9.27,3.95-15.91,10.59-19.67,19.96c-2.39,6-2.98,12.15-1.81,18.5
				c1.32,7.37,4.78,13.67,10.2,18.89c9.23,8.93,22.11,12.35,34.36,8.79c10.84-3.17,18.55-10.1,22.84-20.55
				c2.83-6.98,3.27-14.2,1.56-21.57C258.51,62.35,245.28,50.19,227.61,50.24z"/>
			<path class="st1" d="M673.07,84.75c-0.05,22.89-15.18,40.32-34.02,45.49c-6.1,1.66-12.25,2.05-18.5,1.22
				c-19.28-2.54-34.36-16.55-39.2-33.83c-4.39-15.67-0.24-31.97,10.93-43.88c6.35-6.74,13.96-11.32,22.89-13.57
				c5.27-1.32,10.59-1.76,16.06-1.27c16.74,1.42,32.12,12.54,38.61,29.19c1.76,4.54,2.83,9.23,3.08,14.11
				C673.02,83.24,673.07,84.21,673.07,84.75z M661.55,85.04c0.05-2.15-0.2-4.39-0.63-6.64c-2.1-10.4-7.71-18.4-16.89-23.62
				c-9.57-5.47-19.67-6-29.87-2.15c-9.37,3.51-16.16,10.01-20.21,19.23c-3.08,7.03-3.66,14.25-1.85,21.67
				c1.66,6.78,5.13,12.45,10.2,17.23c9.27,8.74,22.45,11.86,34.51,8.2C651.25,114.48,661.59,101.3,661.55,85.04z"/>
			<path class="st1" d="M0.05,84.9c0-12.59,0-25.24,0-37.83c0-0.73,0-1.42,0.15-2.15c0.54-2.68,2.54-4.54,5.27-4.78
				c0.44-0.05,0.88-0.05,1.32-0.05c17.23,0,34.46,0,51.69,0c0.83,0,1.66,0.05,2.49,0.24c2.64,0.78,4.2,3.08,4.05,5.96
				c-0.1,2.49-1.95,4.59-4.49,5.13c-0.73,0.15-1.42,0.15-2.15,0.15c-14.89,0-29.82,0-44.71,0c-0.54,0-1.12,0-1.66,0.05
				c-0.24,0-0.39,0.2-0.39,0.44c-0.05,0.34-0.05,0.68-0.05,0.98c0,8.15,0,16.35,0,24.5c0,1.61-0.1,1.51,1.56,1.51
				c13.33,0,26.7,0,40.03,0c0.88,0,1.76,0,2.64,0.34c2.25,0.83,3.81,3.03,3.81,5.37c0,2.39-1.46,4.54-3.76,5.42
				c-0.49,0.2-0.98,0.24-1.46,0.29c-0.68,0.05-1.32,0.05-2,0.05c-12.84,0-25.67,0-38.51,0c-0.44,0-0.88,0-1.32,0
				c-0.88,0.05-0.93,0.05-0.93,0.98c0,1.9,0,3.76,0,5.66c0,6.54,0,13.13,0,19.67c0,1.61-0.05,1.51,1.56,1.51c15.33,0,30.7,0,46.03,0
				c0.54,0,1.12,0,1.66,0c3.03,0.15,5.37,2.68,5.37,5.71c0,3.08-2.34,5.52-5.42,5.71c-0.49,0.05-0.98,0-1.51,0
				c-17.47,0-34.9,0-52.38,0c-0.29,0-0.54,0-0.83,0c-3.56-0.05-5.96-2.34-6.1-5.91c0-0.39,0-0.78,0-1.17
				C0.05,110.13,0.05,97.54,0.05,84.9z"/>
			<path class="st1" d="M690.64,72.25c0-8.35,0-16.64,0-24.99c0-0.78,0.05-1.56,0.15-2.34c0.34-2.49,2.78-4.93,5.96-4.78
				c2.88,0.15,5.22,2.49,5.42,5.37c0.05,0.49,0,0.98,0,1.51c0,15.57,0,31.09,0,46.66c0,3.47,0.34,6.88,1.37,10.2
				c0.34,1.12,0.73,2.2,1.22,3.27c2.29,5.13,6.05,8.69,11.32,10.64c3.42,1.27,6.98,1.85,10.59,2c4.3,0.15,8.54-0.15,12.69-1.42
				c4.49-1.37,8.25-3.81,10.98-7.71c1.76-2.54,2.83-5.37,3.56-8.4c0.63-2.78,0.93-5.56,0.93-8.44c0-15.52,0-31,0-46.52
				c0-0.54,0-1.12,0-1.66c0-2.68,2.39-5.52,5.76-5.56c3.08-0.05,5.56,2.49,5.71,5.61c0,0.34,0,0.68,0,0.98c0,15.82,0,31.68,0,47.49
				c0,4.98-0.68,9.86-2.34,14.55c-3.81,10.89-11.28,17.87-22.4,20.89c-5.52,1.51-11.13,1.9-16.84,1.46
				c-3.81-0.29-7.52-0.88-11.08-2.1c-7.71-2.64-13.81-7.22-17.91-14.35c-2.05-3.61-3.37-7.47-4.15-11.52
				c-0.68-3.42-0.88-6.83-0.88-10.3C690.64,86.02,690.64,79.14,690.64,72.25z"/>
			<path class="st1" d="M528.68,38.82c4.2,0.15,8.3,0.59,12.4,1.61c3.51,0.88,6.88,2.2,9.91,4.2c2.15,1.42,4.1,3.08,5.61,5.17
				c0.93,1.27,1.37,2.64,1.22,4.2c-0.24,2.39-1.46,4.05-3.71,4.83c-2.15,0.78-4.78,0.29-6.1-1.46c-2.59-3.42-6.2-4.98-10.15-5.91
				c-4-0.98-8.1-1.27-12.25-1.03c-3.22,0.2-6.2,1.12-8.88,2.98c-0.88,0.63-1.66,1.32-2.34,2.1c-2.78,3.22-3.51,6.88-2.15,10.89
				c0.83,2.54,2.34,4.64,4.3,6.44c1.66,1.51,3.56,2.64,5.61,3.56c3.17,1.46,6.49,2.29,9.86,3.03c4.64,0.98,9.13,2.34,13.42,4.34
				c3.56,1.66,6.78,3.81,9.52,6.59c4.05,4.2,6.3,9.18,6.88,14.99c0.29,2.78,0.15,5.56-0.54,8.25c-1.42,5.32-4.49,9.47-9.08,12.54
				c-3.32,2.2-7.03,3.51-10.93,4.25c-4.88,0.93-9.81,1.12-14.79,0.78c-4.25-0.29-8.4-0.88-12.45-2.15
				c-3.86-1.17-7.47-2.83-10.69-5.32c-1.85-1.42-3.51-3.08-4.78-5.08c-0.93-1.51-1.17-3.08-0.63-4.78c0.68-2.25,2.25-3.56,4.49-4
				c2.15-0.39,3.95,0.34,5.37,2c0.44,0.49,0.83,1.07,1.27,1.56c1.03,1.12,2.29,1.95,3.61,2.64c2.88,1.56,5.96,2.44,9.13,3.03
				c4.25,0.78,8.49,0.88,12.79,0.63c2.73-0.2,5.42-0.63,7.96-1.61c1.32-0.49,2.54-1.07,3.71-1.9c2.78-2,4.2-4.64,4.2-8.1
				c0-2.73-0.54-5.27-2.05-7.61c-1.03-1.61-2.39-2.88-3.95-4c-1.76-1.27-3.71-2.25-5.71-3.08c-3.32-1.37-6.74-2.25-10.2-2.98
				c-4.49-0.93-8.79-2.29-12.89-4.39c-4.83-2.49-8.83-5.91-11.76-10.54c-2.1-3.42-3.42-7.08-3.76-11.08
				c-0.34-3.95,0.39-7.71,2.15-11.32c1.9-3.81,4.64-6.88,8.2-9.27c4.2-2.83,8.83-4.39,13.86-4.78
				C525.8,38.92,527.26,38.87,528.68,38.82z"/>
			<path class="st1" d="M131.4,38.33c8.15,0,15.38,1.76,22.11,5.42c1.85,0.98,3.66,2.15,5.32,3.42c0.44,0.34,0.88,0.68,1.27,1.07
				c2.05,2.05,2.29,5.37,0.54,7.61c-1.61,2.05-4.83,3.08-7.66,1.32c-0.29-0.2-0.54-0.39-0.83-0.59c-5.08-3.76-10.74-5.96-17.04-6.54
				c-10.45-0.93-19.67,2.05-27.53,8.98c-5.37,4.78-9.13,10.64-10.69,17.67c-2.73,12.11,0.15,22.8,8.54,31.92
				c4.59,4.98,10.15,8.44,16.74,10.15c10.93,2.83,21.04,0.88,30.17-5.71c0.63-0.44,1.22-0.98,1.85-1.42
				c2.34-1.61,5.32-1.32,7.32,0.63c2.25,2.25,2.25,5.86-0.05,8.1c-0.39,0.39-0.83,0.73-1.27,1.07c-6.35,4.98-13.47,8.2-21.43,9.42
				c-15.47,2.39-28.9-2.1-40.22-12.79c-6.69-6.3-10.93-14.06-13.03-22.99c-1.07-4.49-1.32-9.08-0.98-13.72
				c1.51-20.94,17.33-37.15,35.78-41.59C124.18,38.77,127.98,38.28,131.4,38.33z"/>
			<path class="st1" d="M784.55,84.9c0-12.54,0-25.09,0-37.63c0-0.63,0-1.22,0.05-1.85c0.05-2.39,2.15-5.32,5.81-5.27
				c3.03,0,5.47,2.44,5.61,5.47c0,0.49,0,0.98,0,1.51c0,23.09,0,46.22,0,69.31c0,2.29-0.29,2.05,2,2.05c13.67,0,27.33,0,41,0
				c0.88,0,1.76,0,2.64,0.24c2.49,0.68,4.25,3.03,4.2,5.56c-0.05,2.73-1.95,5.03-4.64,5.56c-0.54,0.1-1.12,0.15-1.66,0.15
				c-16.3,0-32.56,0-48.86,0c-1.66,0-3.17-0.39-4.44-1.61c-1.03-0.98-1.66-2.2-1.76-3.66c-0.05-0.59-0.05-1.22-0.05-1.85
				C784.55,110.23,784.55,97.54,784.55,84.9z"/>
		</g>
		<g>
			<path class="st0" d="M382.71,32.94c-8.22,0.03-16.44,1.82-23.92,5.25c-0.28,0.13-0.57,0.26-0.85,0.4
				c-5.04,2.39-9.57,5.58-13.55,9.51c-2.01,1.98-3.88,4.11-5.55,6.38c-1.65,2.24-2.67,4.06-5.32,5.25
				c-4.09,1.83-8.13,3.73-12.29,5.4c-3.81,1.52-7.69,2.88-11.73,3.68c-2.57,0.51-5.14,0.9-7.77,0.8c-0.64-0.03-0.8-0.21-0.69-0.82
				c0.05-0.28,0.1-0.54,0.18-0.82c3.03-11.8,8.25-22.55,15.81-32.14c7.15-9.05,15.79-16.3,25.92-21.83
				c7.66-4.19,15.76-7.12,24.27-8.87c3.63-0.75,7.33-1.21,11.03-1.49c2.6-0.21,5.22-0.18,7.82-0.18c3.88,0.03,7.74,0.44,11.57,1.05
				c4.11,0.67,8.15,1.59,12.14,2.88c4.55,1.47,8.95,3.24,13.22,5.43c3.96,2.03,7.74,4.35,11.34,6.94
				c4.29,3.09,8.28,6.56,11.88,10.41c9.54,10.26,16.25,22.11,20.08,35.59c1.41,4.99,2.44,10.21,2.85,15.38
				c0.57,7.2-4.6,12.75-9.26,17.56c-4.09,4.22-8.46,8.18-12.99,11.93c-4.19,3.5-8.82,6.35-13.73,8.74
				c-5.91,2.88-12.11,4.94-18.51,6.4c-3.83,0.87-7.74,1.39-11.67,1.62c-1.93,0.13-3.88,0.15-5.81,0.18
				c-3.45,0.05-6.87-0.28-10.29-0.72c-4.53-0.57-8.95-1.52-13.35-2.78c-6.69-1.9-13.11-4.47-19.34-7.56
				c-8.82-4.4-17.05-9.75-24.84-15.74c-4.22-3.24-8.31-6.66-12.27-10.21c-2.57-2.29-5.12-4.6-7.33-7.25
				c-2.49-2.98-4.6-6.25-6.79-9.46c-0.33-0.49-0.21-0.75,0.33-0.75c5.63,0,10.95-1.62,16.17-3.5c4.86-1.72,9.54-3.91,14.22-6.09
				c5.61-2.65,11.21-5.37,16.84-7.97c4.94-2.29,10-4.24,15.3-5.55c5.09-1.26,10.26-1.83,15.51-1.67c2.78,0.08,5.53,0.33,8.23,1
				c6.66,1.67,11.44,5.66,14.37,11.85c1.9,4.01,2.6,8.25,2.03,12.65c-0.46,3.55-1.7,7.02-3.86,9.9c-2.52,3.34-6.97,6.4-10.98,7.64
				c-3.55,1.11-7.17,1.88-10.9,2.08c-1.26,0.08-2.55,0.21-3.81,0.18c-4.06-0.05-8.07-0.51-12.03-1.41
				c-7.84-1.77-14.99-5.07-21.57-9.67c-0.23-0.15-0.44-0.33-0.69-0.46c-0.85-0.49-1.75-0.26-2.34,0.57
				c-0.49,0.69-0.39,1.62,0.26,2.26c0.21,0.18,0.44,0.33,0.67,0.51c2.29,1.67,4.71,3.14,7.2,4.45c0.64,0.33,1.26,0.69,1.83,1.13
				c7.84,5.97,16.66,9.64,26.36,11.29c4.29,0.72,8.61,0.95,12.93,0.64c7.1-0.49,13.94-2.03,20.26-5.37
				c5.48-2.88,10.18-6.71,13.76-11.8c3.27-4.65,5.01-9.8,5.07-15.56c0.05-5.09-0.98-9.9-3.14-14.48c-1.52-3.24-3.57-6.12-6.02-8.72
				c-4.37-4.71-9.77-7.79-15.63-10.16C396.79,34.19,389.75,32.91,382.71,32.94z"/>
			<path class="st0" d="M299.5,76.41c0.08-0.41,0.59-0.54,0.85-0.23c0.21,0.26,0.33,0.57,0.51,0.82c1.54,2.29,3.14,4.58,4.81,6.79
				c2.13,2.83,4.65,5.3,7.23,7.69c4.09,3.78,8.33,7.41,12.7,10.83c1.88,1.47,3.78,2.93,5.73,4.35c0.69,0.51,1.18,1.11,1.52,1.9
				c2.08,4.81,4.71,9.31,8,13.4c7.92,9.8,18.08,16.04,30.32,18.92c3.19,0.75,6.43,1.16,9.72,1.13c2.06-0.03,4.11,0.05,6.17-0.08
				c4.55-0.28,9-1.21,13.37-2.55c3.34-1.03,6.61-2.24,9.75-3.81c3.14-1.59,5.99-3.6,8.46-6.12c0.93-0.95,1.98-1.49,3.24-1.88
				c7.71-2.29,14.97-5.5,21.68-9.98c3.19-2.13,6.17-4.53,9.03-7.07c3.14-2.78,6.22-5.63,9.21-8.61c2.57-2.6,4.86-5.35,7.15-8.18
				c0.03-0.03,0.03-0.05,0.05-0.05c0.36-0.21,0.33,0.49,0.31,0.64c-0.1,1.54-0.18,3.09-0.39,4.63c-0.69,5.12-1.72,10.16-3.24,15.09
				c-1.65,5.25-3.75,10.31-6.33,15.17c-3.06,5.76-6.74,11.08-11.03,15.99c-3.47,3.99-7.3,7.59-11.44,10.88
				c-4.37,3.45-9.05,6.4-14.01,8.92c-5.55,2.83-11.37,4.99-17.38,6.58c-4.14,1.08-8.33,1.85-12.57,2.29
				c-3.24,0.33-6.53,0.46-9.8,0.41c-12.21-0.15-23.84-2.83-34.92-7.95c-7.77-3.57-14.84-8.23-21.21-13.91
				c-8.46-7.56-15.12-16.48-19.98-26.74c-3.55-7.46-5.97-15.25-7.3-23.4c-1.08-6.51-1.18-13.01-0.82-19.57"/>
		</g>
	</g>
	<g>
		<g>
			<path class="st0" d="M831.74,28.24c-7.78,0-14.12-6.33-14.12-14.12c0-7.78,6.33-14.12,14.12-14.12s14.12,6.33,14.12,14.12
				C845.86,21.9,839.53,28.24,831.74,28.24z M831.74,2.72c-6.29,0-11.4,5.11-11.4,11.4s5.11,11.4,11.4,11.4
				c6.29,0,11.4-5.12,11.4-11.4S838.03,2.72,831.74,2.72z"/>
		</g>
		<g>
			<g>
				<path class="st0" d="M835.37,20.04c-0.35,0-0.66-0.26-0.74-0.62c-0.18-0.92-0.47-1.66-0.86-2.21c-0.29-0.42-0.65-0.72-1.05-0.92
					c-0.32-0.17-0.63-0.23-0.87-0.24c-0.2,0-0.41,0.02-0.62,0.02c-0.38,0-0.71-0.3-0.74-0.69c-0.05-0.38,0.23-0.74,0.6-0.8
					c0.06-0.01,0.35-0.08,0.77-0.04c0.78-0.05,1.4-0.21,1.85-0.47c0.66-0.38,0.98-0.96,0.98-1.85c0-0.6-0.12-1.1-0.33-1.49
					c-0.17-0.29-0.41-0.51-0.69-0.69c-0.54-0.3-1.1-0.32-1.14-0.32h-3.72v9.58c0,0.41-0.33,0.75-0.75,0.75
					c-0.41,0-0.75-0.35-0.75-0.75V8.95c0-0.42,0.35-0.75,0.75-0.75h4.48c0.06,0,0.42,0,0.89,0.12c0.66,0.17,1.25,0.48,1.7,0.93
					c0.33,0.33,0.6,0.74,0.78,1.21c0.2,0.51,0.3,1.1,0.3,1.75c0,1.42-0.6,2.52-1.73,3.16c-0.07,0.05-0.15,0.08-0.24,0.12
					c0.27,0.23,0.51,0.48,0.74,0.78c0.54,0.74,0.92,1.7,1.15,2.86c0.07,0.41-0.18,0.81-0.59,0.89
					C835.46,20.02,835.41,20.04,835.37,20.04z"/>
			</g>
		</g>
	</g>
</g>
</svg>
